<?xml version="1.0" encoding="UTF-8"?>
<!DOCTYPE svg PUBLIC "-//W3C//DTD SVG 1.1//EN" "http://www.w3.org/Graphics/SVG/1.1/DTD/svg11.dtd">
<svg version="1.1" xmlns="http://www.w3.org/2000/svg" xmlns:xlink="http://www.w3.org/1999/xlink" x="0px" y="0px" width="128" height="128" viewBox="0, 0, 128, 128">
  <g id="Background">
    <rect x="0" y="0" width="128" height="128" fill="#000000" fill-opacity="0"/>
  </g>
  <g id="Background">
    <path d="M18.095,6 L109.907,6 C116.561,6 122,11.439 122,18.095 L122,109.907 C122,116.561 116.561,122 109.907,122 L18.095,122 C11.439,122 6,116.561 6,109.907 L6,18.095 C6,11.439 11.439,6 18.095,6" fill="#727272"/>
    <path d="M34.873,95.238 L34.873,66.79 L52.282,66.79 L52.282,95.238 z M34.873,59.631 L34.873,50.629 C33.315,51.707 31.639,52.862 29.844,54.085 C28.05,55.314 26.643,56.288 25.625,57 L25.625,40.847 L37.293,32.772 L52.282,32.772 L52.282,59.631 z M102.359,76.299 C102.359,79.291 101.801,81.985 100.696,84.379 C99.591,86.771 98.065,88.803 96.119,90.48 C94.174,92.161 91.872,93.443 89.206,94.339 C86.547,95.238 83.63,95.686 80.456,95.686 C77.345,95.686 74.454,95.238 71.796,94.339 C69.135,93.443 66.845,92.161 64.928,90.48 C63.014,88.803 61.508,86.771 60.398,84.379 C59.292,81.985 58.74,79.291 58.74,76.299 L58.74,66.827 L76.235,66.827 L76.235,75.943 C76.235,78.094 76.615,79.592 77.359,80.428 C78.108,81.263 79.14,81.684 80.456,81.684 C81.775,81.684 82.821,81.208 83.598,80.25 C84.379,79.291 84.762,77.857 84.762,75.943 L84.762,66.827 L102.359,66.827 z M58.74,59.885 L58.74,51.889 C58.74,48.835 59.292,46.112 60.398,43.719 C61.508,41.325 63.032,39.279 64.973,37.571 C66.919,35.864 69.22,34.567 71.883,33.668 C74.55,32.772 77.404,32.319 80.456,32.319 C83.57,32.319 86.47,32.772 89.164,33.668 C91.859,34.567 94.174,35.864 96.119,37.571 C98.065,39.279 99.591,41.325 100.696,43.719 C101.801,46.112 102.359,48.835 102.359,51.889 L102.359,59.885 L84.762,59.885 L84.762,52.337 C84.762,50.181 84.379,48.656 83.598,47.76 C82.821,46.861 81.775,46.413 80.456,46.413 C79.14,46.413 78.108,46.861 77.359,47.76 C76.615,48.656 76.235,50.181 76.235,52.337 L76.235,59.885 z" fill="#84D0F4"/>
    <path d="M24.666,81.534 L46.154,81.542 L59.552,97.695 L39.074,95.882 z" fill="#727272"/>
    <path d="M49.606,113.675 L113.912,113.675 L113.912,14.326 L14.075,14.326 L14.075,77.715 C14.075,93.809 35.106,113.675 49.606,113.675 z M19.838,20.117 L108.149,20.117 L108.149,107.885 C108.149,107.885 57.361,107.885 49.186,107.885 C35.343,107.738 44.28,82.99 44.28,82.99 C44.28,82.99 20.747,89.886 19.838,78.803 C19.838,70.541 19.838,50.592 19.838,20.117" fill="#EBECEC"/>
  </g>
  <defs/>
</svg>
