<?xml version="1.0" encoding="UTF-8"?>
<!DOCTYPE svg PUBLIC "-//W3C//DTD SVG 1.1//EN" "http://www.w3.org/Graphics/SVG/1.1/DTD/svg11.dtd">
<svg version="1.1" xmlns="http://www.w3.org/2000/svg" xmlns:xlink="http://www.w3.org/1999/xlink" x="0" y="0" width="410" height="240" viewBox="0, 0, 410, 240">
  <g id="Layer_1">
    <g>
      <path d="M30.5,45.5 C22.216,45.5 15.5,38.784 15.5,30.5 C15.5,22.216 22.216,15.5 30.5,15.5 C38.784,15.5 45.5,22.216 45.5,30.5 C45.5,38.784 38.784,45.5 30.5,45.5 z" fill="#006CA9"/>
      <path d="M30.5,45.5 C22.216,45.5 15.5,38.784 15.5,30.5 C15.5,22.216 22.216,15.5 30.5,15.5 C38.784,15.5 45.5,22.216 45.5,30.5 C45.5,38.784 38.784,45.5 30.5,45.5 z" fill-opacity="0" stroke="#294270" stroke-width="1"/>
    </g>
    <g>
      <path d="M90.5,45.5 C82.216,45.5 75.5,38.784 75.5,30.5 C75.5,22.216 82.216,15.5 90.5,15.5 C98.784,15.5 105.5,22.216 105.5,30.5 C105.5,38.784 98.784,45.5 90.5,45.5 z" fill="#F0801A"/>
      <path d="M90.5,45.5 C82.216,45.5 75.5,38.784 75.5,30.5 C75.5,22.216 82.216,15.5 90.5,15.5 C98.784,15.5 105.5,22.216 105.5,30.5 C105.5,38.784 98.784,45.5 90.5,45.5 z" fill-opacity="0" stroke="#294270" stroke-width="1"/>
    </g>
    <g>
      <path d="M150.5,45.5 C142.216,45.5 135.5,38.784 135.5,30.5 C135.5,22.216 142.216,15.5 150.5,15.5 C158.784,15.5 165.5,22.216 165.5,30.5 C165.5,38.784 158.784,45.5 150.5,45.5 z" fill="#006CA9"/>
      <path d="M150.5,45.5 C142.216,45.5 135.5,38.784 135.5,30.5 C135.5,22.216 142.216,15.5 150.5,15.5 C158.784,15.5 165.5,22.216 165.5,30.5 C165.5,38.784 158.784,45.5 150.5,45.5 z" fill-opacity="0" stroke="#294270" stroke-width="1"/>
    </g>
    <g>
      <path d="M210.5,45.5 C202.216,45.5 195.5,38.784 195.5,30.5 C195.5,22.216 202.216,15.5 210.5,15.5 C218.784,15.5 225.5,22.216 225.5,30.5 C225.5,38.784 218.784,45.5 210.5,45.5 z" fill="#F0801A"/>
      <path d="M210.5,45.5 C202.216,45.5 195.5,38.784 195.5,30.5 C195.5,22.216 202.216,15.5 210.5,15.5 C218.784,15.5 225.5,22.216 225.5,30.5 C225.5,38.784 218.784,45.5 210.5,45.5 z" fill-opacity="0" stroke="#294270" stroke-width="1"/>
    </g>
    <g>
      <path d="M270.5,45.5 C262.216,45.5 255.5,38.784 255.5,30.5 C255.5,22.216 262.216,15.5 270.5,15.5 C278.784,15.5 285.5,22.216 285.5,30.5 C285.5,38.784 278.784,45.5 270.5,45.5 z" fill="#006CA9"/>
      <path d="M270.5,45.5 C262.216,45.5 255.5,38.784 255.5,30.5 C255.5,22.216 262.216,15.5 270.5,15.5 C278.784,15.5 285.5,22.216 285.5,30.5 C285.5,38.784 278.784,45.5 270.5,45.5 z" fill-opacity="0" stroke="#294270" stroke-width="1"/>
    </g>
    <g>
      <path d="M330.5,45.5 C322.216,45.5 315.5,38.784 315.5,30.5 C315.5,22.216 322.216,15.5 330.5,15.5 C338.784,15.5 345.5,22.216 345.5,30.5 C345.5,38.784 338.784,45.5 330.5,45.5 z" fill="#F0801A"/>
      <path d="M330.5,45.5 C322.216,45.5 315.5,38.784 315.5,30.5 C315.5,22.216 322.216,15.5 330.5,15.5 C338.784,15.5 345.5,22.216 345.5,30.5 C345.5,38.784 338.784,45.5 330.5,45.5 z" fill-opacity="0" stroke="#294270" stroke-width="1"/>
    </g>
    <path d="M45.5,30.5 L75.5,30.5" fill-opacity="0" stroke="#294270" stroke-width="6"/>
    <path d="M105.5,30.5 L135.5,30.5" fill-opacity="0" stroke="#294270" stroke-width="6"/>
    <path d="M165.5,30.5 L195.5,30.5" fill-opacity="0" stroke="#294270" stroke-width="6"/>
    <path d="M225.5,30.5 L255.5,30.5" fill-opacity="0" stroke="#294270" stroke-width="6"/>
    <path d="M285.5,30.5 L315.5,30.5" fill-opacity="0" stroke="#294270" stroke-width="6"/>
    <g>
      <path d="M330.5,105.5 C322.216,105.5 315.5,98.784 315.5,90.5 C315.5,82.216 322.216,75.5 330.5,75.5 C338.784,75.5 345.5,82.216 345.5,90.5 C345.5,98.784 338.784,105.5 330.5,105.5 z" fill="#006CA9"/>
      <path d="M330.5,105.5 C322.216,105.5 315.5,98.784 315.5,90.5 C315.5,82.216 322.216,75.5 330.5,75.5 C338.784,75.5 345.5,82.216 345.5,90.5 C345.5,98.784 338.784,105.5 330.5,105.5 z" fill-opacity="0" stroke="#294270" stroke-width="1"/>
    </g>
    <g>
      <path d="M30.5,105.5 C22.216,105.5 15.5,98.784 15.5,90.5 C15.5,82.216 22.216,75.5 30.5,75.5 C38.784,75.5 45.5,82.216 45.5,90.5 C45.5,98.784 38.784,105.5 30.5,105.5 z" fill="#F0801A"/>
      <path d="M30.5,105.5 C22.216,105.5 15.5,98.784 15.5,90.5 C15.5,82.216 22.216,75.5 30.5,75.5 C38.784,75.5 45.5,82.216 45.5,90.5 C45.5,98.784 38.784,105.5 30.5,105.5 z" fill-opacity="0" stroke="#294270" stroke-width="1"/>
    </g>
    <g>
      <path d="M90.5,105.5 C82.216,105.5 75.5,98.784 75.5,90.5 C75.5,82.216 82.216,75.5 90.5,75.5 C98.784,75.5 105.5,82.216 105.5,90.5 C105.5,98.784 98.784,105.5 90.5,105.5 z" fill="#006CA9"/>
      <path d="M90.5,105.5 C82.216,105.5 75.5,98.784 75.5,90.5 C75.5,82.216 82.216,75.5 90.5,75.5 C98.784,75.5 105.5,82.216 105.5,90.5 C105.5,98.784 98.784,105.5 90.5,105.5 z" fill-opacity="0" stroke="#294270" stroke-width="1"/>
    </g>
    <g>
      <path d="M150.5,105.5 C142.216,105.5 135.5,98.784 135.5,90.5 C135.5,82.216 142.216,75.5 150.5,75.5 C158.784,75.5 165.5,82.216 165.5,90.5 C165.5,98.784 158.784,105.5 150.5,105.5 z" fill="#F0801A"/>
      <path d="M150.5,105.5 C142.216,105.5 135.5,98.784 135.5,90.5 C135.5,82.216 142.216,75.5 150.5,75.5 C158.784,75.5 165.5,82.216 165.5,90.5 C165.5,98.784 158.784,105.5 150.5,105.5 z" fill-opacity="0" stroke="#294270" stroke-width="1"/>
    </g>
    <g>
      <path d="M210.5,105.5 C202.216,105.5 195.5,98.784 195.5,90.5 C195.5,82.216 202.216,75.5 210.5,75.5 C218.784,75.5 225.5,82.216 225.5,90.5 C225.5,98.784 218.784,105.5 210.5,105.5 z" fill="#006CA9"/>
      <path d="M210.5,105.5 C202.216,105.5 195.5,98.784 195.5,90.5 C195.5,82.216 202.216,75.5 210.5,75.5 C218.784,75.5 225.5,82.216 225.5,90.5 C225.5,98.784 218.784,105.5 210.5,105.5 z" fill-opacity="0" stroke="#294270" stroke-width="1"/>
    </g>
    <g>
      <path d="M270.5,105.5 C262.216,105.5 255.5,98.784 255.5,90.5 C255.5,82.216 262.216,75.5 270.5,75.5 C278.784,75.5 285.5,82.216 285.5,90.5 C285.5,98.784 278.784,105.5 270.5,105.5 z" fill="#F0801A"/>
      <path d="M270.5,105.5 C262.216,105.5 255.5,98.784 255.5,90.5 C255.5,82.216 262.216,75.5 270.5,75.5 C278.784,75.5 285.5,82.216 285.5,90.5 C285.5,98.784 278.784,105.5 270.5,105.5 z" fill-opacity="0" stroke="#294270" stroke-width="1"/>
    </g>
    <path d="M285.5,90.5 L315.5,90.5" fill-opacity="0" stroke="#294270" stroke-width="6"/>
    <path d="M45.5,90.5 L75.5,90.5" fill-opacity="0" stroke="#294270" stroke-width="6"/>
    <path d="M105.5,90.5 L135.5,90.5" fill-opacity="0" stroke="#294270" stroke-width="6"/>
    <path d="M165.5,90.5 L195.5,90.5" fill-opacity="0" stroke="#294270" stroke-width="6"/>
    <path d="M225.5,90.5 L255.5,90.5" fill-opacity="0" stroke="#294270" stroke-width="6"/>
    <g>
      <path d="M330.5,165.5 C322.216,165.5 315.5,158.784 315.5,150.5 C315.5,142.216 322.216,135.5 330.5,135.5 C338.784,135.5 345.5,142.216 345.5,150.5 C345.5,158.784 338.784,165.5 330.5,165.5 z" fill="#F0801A"/>
      <path d="M330.5,165.5 C322.216,165.5 315.5,158.784 315.5,150.5 C315.5,142.216 322.216,135.5 330.5,135.5 C338.784,135.5 345.5,142.216 345.5,150.5 C345.5,158.784 338.784,165.5 330.5,165.5 z" fill-opacity="0" stroke="#294270" stroke-width="1"/>
    </g>
    <g>
      <path d="M30.5,165.5 C22.216,165.5 15.5,158.784 15.5,150.5 C15.5,142.216 22.216,135.5 30.5,135.5 C38.784,135.5 45.5,142.216 45.5,150.5 C45.5,158.784 38.784,165.5 30.5,165.5 z" fill="#F0801A"/>
      <path d="M30.5,165.5 C22.216,165.5 15.5,158.784 15.5,150.5 C15.5,142.216 22.216,135.5 30.5,135.5 C38.784,135.5 45.5,142.216 45.5,150.5 C45.5,158.784 38.784,165.5 30.5,165.5 z" fill-opacity="0" stroke="#294270" stroke-width="1"/>
    </g>
    <g>
      <path d="M90.5,165.5 C82.216,165.5 75.5,158.784 75.5,150.5 C75.5,142.216 82.216,135.5 90.5,135.5 C98.784,135.5 105.5,142.216 105.5,150.5 C105.5,158.784 98.784,165.5 90.5,165.5 z" fill="#006CA9"/>
      <path d="M90.5,165.5 C82.216,165.5 75.5,158.784 75.5,150.5 C75.5,142.216 82.216,135.5 90.5,135.5 C98.784,135.5 105.5,142.216 105.5,150.5 C105.5,158.784 98.784,165.5 90.5,165.5 z" fill-opacity="0" stroke="#294270" stroke-width="1"/>
    </g>
    <g>
      <path d="M150.5,165.5 C142.216,165.5 135.5,158.784 135.5,150.5 C135.5,142.216 142.216,135.5 150.5,135.5 C158.784,135.5 165.5,142.216 165.5,150.5 C165.5,158.784 158.784,165.5 150.5,165.5 z" fill="#006CA9"/>
      <path d="M150.5,165.5 C142.216,165.5 135.5,158.784 135.5,150.5 C135.5,142.216 142.216,135.5 150.5,135.5 C158.784,135.5 165.5,142.216 165.5,150.5 C165.5,158.784 158.784,165.5 150.5,165.5 z" fill-opacity="0" stroke="#294270" stroke-width="1"/>
    </g>
    <g>
      <path d="M210.5,165.5 C202.216,165.5 195.5,158.784 195.5,150.5 C195.5,142.216 202.216,135.5 210.5,135.5 C218.784,135.5 225.5,142.216 225.5,150.5 C225.5,158.784 218.784,165.5 210.5,165.5 z" fill="#F0801A"/>
      <path d="M210.5,165.5 C202.216,165.5 195.5,158.784 195.5,150.5 C195.5,142.216 202.216,135.5 210.5,135.5 C218.784,135.5 225.5,142.216 225.5,150.5 C225.5,158.784 218.784,165.5 210.5,165.5 z" fill-opacity="0" stroke="#294270" stroke-width="1"/>
    </g>
    <g>
      <path d="M270.5,165.5 C262.216,165.5 255.5,158.784 255.5,150.5 C255.5,142.216 262.216,135.5 270.5,135.5 C278.784,135.5 285.5,142.216 285.5,150.5 C285.5,158.784 278.784,165.5 270.5,165.5 z" fill="#006CA9"/>
      <path d="M270.5,165.5 C262.216,165.5 255.5,158.784 255.5,150.5 C255.5,142.216 262.216,135.5 270.5,135.5 C278.784,135.5 285.5,142.216 285.5,150.5 C285.5,158.784 278.784,165.5 270.5,165.5 z" fill-opacity="0" stroke="#294270" stroke-width="1"/>
    </g>
    <path d="M285.5,150.5 L315.5,150.5" fill-opacity="0" stroke="#294270" stroke-width="6"/>
    <path d="M45.5,150.5 L75.5,150.5" fill-opacity="0" stroke="#294270" stroke-width="6"/>
    <path d="M105.5,150.5 L135.5,150.5" fill-opacity="0" stroke="#294270" stroke-width="6"/>
    <path d="M165.5,150.5 L195.5,150.5" fill-opacity="0" stroke="#294270" stroke-width="6"/>
    <path d="M225.5,150.5 L255.5,150.5" fill-opacity="0" stroke="#294270" stroke-width="6"/>
    <g>
      <path d="M330.5,225.5 C322.216,225.5 315.5,218.784 315.5,210.5 C315.5,202.216 322.216,195.5 330.5,195.5 C338.784,195.5 345.5,202.216 345.5,210.5 C345.5,218.784 338.784,225.5 330.5,225.5 z" fill="#006CA9"/>
      <path d="M330.5,225.5 C322.216,225.5 315.5,218.784 315.5,210.5 C315.5,202.216 322.216,195.5 330.5,195.5 C338.784,195.5 345.5,202.216 345.5,210.5 C345.5,218.784 338.784,225.5 330.5,225.5 z" fill-opacity="0" stroke="#294270" stroke-width="1"/>
    </g>
    <g>
      <path d="M30.5,225.5 C22.216,225.5 15.5,218.784 15.5,210.5 C15.5,202.216 22.216,195.5 30.5,195.5 C38.784,195.5 45.5,202.216 45.5,210.5 C45.5,218.784 38.784,225.5 30.5,225.5 z" fill="#F0801A"/>
      <path d="M30.5,225.5 C22.216,225.5 15.5,218.784 15.5,210.5 C15.5,202.216 22.216,195.5 30.5,195.5 C38.784,195.5 45.5,202.216 45.5,210.5 C45.5,218.784 38.784,225.5 30.5,225.5 z" fill-opacity="0" stroke="#294270" stroke-width="1"/>
    </g>
    <g>
      <path d="M90.5,225.5 C82.216,225.5 75.5,218.784 75.5,210.5 C75.5,202.216 82.216,195.5 90.5,195.5 C98.784,195.5 105.5,202.216 105.5,210.5 C105.5,218.784 98.784,225.5 90.5,225.5 z" fill="#006CA9"/>
      <path d="M90.5,225.5 C82.216,225.5 75.5,218.784 75.5,210.5 C75.5,202.216 82.216,195.5 90.5,195.5 C98.784,195.5 105.5,202.216 105.5,210.5 C105.5,218.784 98.784,225.5 90.5,225.5 z" fill-opacity="0" stroke="#294270" stroke-width="1"/>
    </g>
    <g>
      <path d="M150.5,225.5 C142.216,225.5 135.5,218.784 135.5,210.5 C135.5,202.216 142.216,195.5 150.5,195.5 C158.784,195.5 165.5,202.216 165.5,210.5 C165.5,218.784 158.784,225.5 150.5,225.5 z" fill="#F0801A"/>
      <path d="M150.5,225.5 C142.216,225.5 135.5,218.784 135.5,210.5 C135.5,202.216 142.216,195.5 150.5,195.5 C158.784,195.5 165.5,202.216 165.5,210.5 C165.5,218.784 158.784,225.5 150.5,225.5 z" fill-opacity="0" stroke="#294270" stroke-width="1"/>
    </g>
    <g>
      <path d="M210.5,225.5 C202.216,225.5 195.5,218.784 195.5,210.5 C195.5,202.216 202.216,195.5 210.5,195.5 C218.784,195.5 225.5,202.216 225.5,210.5 C225.5,218.784 218.784,225.5 210.5,225.5 z" fill="#F0801A"/>
      <path d="M210.5,225.5 C202.216,225.5 195.5,218.784 195.5,210.5 C195.5,202.216 202.216,195.5 210.5,195.5 C218.784,195.5 225.5,202.216 225.5,210.5 C225.5,218.784 218.784,225.5 210.5,225.5 z" fill-opacity="0" stroke="#294270" stroke-width="1"/>
    </g>
    <g>
      <path d="M270.5,225.5 C262.216,225.5 255.5,218.784 255.5,210.5 C255.5,202.216 262.216,195.5 270.5,195.5 C278.784,195.5 285.5,202.216 285.5,210.5 C285.5,218.784 278.784,225.5 270.5,225.5 z" fill="#F0801A"/>
      <path d="M270.5,225.5 C262.216,225.5 255.5,218.784 255.5,210.5 C255.5,202.216 262.216,195.5 270.5,195.5 C278.784,195.5 285.5,202.216 285.5,210.5 C285.5,218.784 278.784,225.5 270.5,225.5 z" fill-opacity="0" stroke="#294270" stroke-width="1"/>
    </g>
    <path d="M285.5,210.5 L315.5,210.5" fill-opacity="0" stroke="#294270" stroke-width="6"/>
    <path d="M45.5,210.5 L75.5,210.5" fill-opacity="0" stroke="#294270" stroke-width="6"/>
    <path d="M105.5,210.5 L135.5,210.5" fill-opacity="0" stroke="#294270" stroke-width="6"/>
    <path d="M165.5,210.5 L195.5,210.5" fill-opacity="0" stroke="#294270" stroke-width="6"/>
    <path d="M225.5,210.5 L255.5,210.5" fill-opacity="0" stroke="#294270" stroke-width="6"/>
    <text transform="matrix(1, 0, 0, 1, 383.689, 30)">
      <tspan x="-23.689" y="23" font-family="LucidaGrande" font-size="62" fill="#006CA9">✓</tspan>
    </text>
    <text transform="matrix(1, 0, 0, 1, 383.689, 90)">
      <tspan x="-23.689" y="23" font-family="LucidaGrande" font-size="62" fill="#006CA9">✓</tspan>
    </text>
    <text transform="matrix(1, 0, 0, 1, 377.695, 150)">
      <tspan x="-17.695" y="19" font-family="ZapfDingbatsITC" font-size="62" fill="#F0801A">✗</tspan>
    </text>
    <text transform="matrix(1, 0, 0, 1, 377.695, 210)">
      <tspan x="-17.695" y="19" font-family="ZapfDingbatsITC" font-size="62" fill="#F0801A">✗</tspan>
    </text>
  </g>
</svg>
